<svg width="26" height="26" viewBox="0 0 26 26" fill="none" xmlns="http://www.w3.org/2000/svg">
<circle cx="13" cy="13" r="13" fill="white" fill-opacity="0.44"/>
<path d="M9.875 17.1C9.355 17.1 8.91167 17.04 8.545 16.92C8.17833 16.7933 7.87833 16.6333 7.645 16.44C7.41167 16.24 7.23833 16.03 7.125 15.81C7.01167 15.5833 6.95167 15.3667 6.945 15.16C6.945 15.1 6.965 15.05 7.005 15.01C7.05167 14.97 7.105 14.95 7.165 14.95H8.465C8.545 14.95 8.60833 14.9667 8.655 15C8.70167 15.0267 8.745 15.0733 8.785 15.14C8.83833 15.2667 8.915 15.37 9.015 15.45C9.12167 15.53 9.24833 15.5867 9.395 15.62C9.54167 15.6467 9.70167 15.66 9.875 15.66C10.215 15.66 10.4783 15.5833 10.665 15.43C10.8583 15.27 10.955 15.0533 10.955 14.78C10.955 14.4933 10.865 14.29 10.685 14.17C10.505 14.0433 10.2483 13.98 9.915 13.98H8.805C8.73167 13.98 8.67167 13.9567 8.625 13.91C8.57833 13.8633 8.555 13.8033 8.555 13.73V13.17C8.555 13.09 8.57167 13.02 8.605 12.96C8.63833 12.9 8.675 12.8567 8.715 12.83L10.355 11.44H7.575C7.50833 11.44 7.44833 11.4167 7.395 11.37C7.34833 11.3233 7.325 11.2633 7.325 11.19V10.25C7.325 10.1767 7.34833 10.1167 7.395 10.07C7.44833 10.0233 7.50833 10 7.575 10H12.175C12.2483 10 12.3083 10.0233 12.355 10.07C12.4083 10.1167 12.435 10.1767 12.435 10.25V11.1C12.435 11.1733 12.4183 11.24 12.385 11.3C12.3517 11.3533 12.315 11.3967 12.275 11.43L10.755 12.84L10.825 12.86C11.205 12.9067 11.545 13.01 11.845 13.17C12.145 13.3233 12.3817 13.54 12.555 13.82C12.7283 14.1 12.815 14.4567 12.815 14.89C12.815 15.3433 12.685 15.7367 12.425 16.07C12.1717 16.3967 11.825 16.65 11.385 16.83C10.945 17.01 10.4417 17.1 9.875 17.1ZM14.1668 17C14.0935 17 14.0335 16.9767 13.9868 16.93C13.9401 16.8833 13.9168 16.8233 13.9168 16.75V10.25C13.9168 10.1767 13.9401 10.1167 13.9868 10.07C14.0335 10.0233 14.0935 10 14.1668 10H16.7668C17.4201 10 17.9768 10.1067 18.4368 10.32C18.8968 10.5267 19.2501 10.8333 19.4968 11.24C19.7435 11.64 19.8768 12.1367 19.8968 12.73C19.9035 13.0233 19.9068 13.28 19.9068 13.5C19.9068 13.72 19.9035 13.9733 19.8968 14.26C19.8701 14.88 19.7368 15.3933 19.4968 15.8C19.2635 16.2067 18.9201 16.51 18.4668 16.71C18.0201 16.9033 17.4701 17 16.8168 17H14.1668ZM15.7068 15.56H16.7668C17.0535 15.56 17.2901 15.5167 17.4768 15.43C17.6701 15.3367 17.8135 15.1933 17.9068 15C18.0068 14.8067 18.0601 14.5533 18.0668 14.24C18.0801 14.0467 18.0868 13.8733 18.0868 13.72C18.0935 13.5667 18.0935 13.4133 18.0868 13.26C18.0868 13.1067 18.0801 12.9367 18.0668 12.75C18.0535 12.2967 17.9335 11.9667 17.7068 11.76C17.4868 11.5467 17.1568 11.44 16.7168 11.44H15.7068V15.56Z" fill="black"/>
</svg>
