<svg xmlns="http://www.w3.org/2000/svg">
  <symbol id="icon-logo-snow" >
<path d="M12.6267 4.04736H13.5623V3.11182H14.4978V2.17627H13.5623V1.24072H12.6267V0.304199H11.6912V1.24072H10.7556V2.17627H9.82007V3.11182H10.7556V4.04736H11.6912V4.98291H12.6267V4.04736ZM10.7556 10.5972H9.82007V9.66162H8.8855V8.7251H9.82007V9.66162H10.7556V10.5972H11.6912V5.91846H10.7556V4.98291H9.82007V4.04736H8.8855V3.11182H7.94897V7.78955H8.88452V8.7251H7.94897V11.5327H10.7556V10.5972ZM16.3699 3.11182H15.4343V7.78955H16.3699V3.11182ZM7.01245 4.98291H6.0769V4.04736H5.14136V4.98291H4.20581V5.91846H5.14136V6.854H7.01245V4.98291ZM13.5623 9.66162H14.4978V8.7251H15.4333V4.04736H14.4978V4.98291H13.5623V5.91846H12.6267V10.5972H13.5623V9.66162ZM19.1765 5.91846H20.1121V4.98291H19.1765V4.04736H18.241V4.98291H17.3054V6.854H19.1765V5.91846ZM7.948 7.78955H3.27026V8.7251H4.20581V9.66162H5.14136V10.5972H6.0769V11.5327H7.948V7.78955ZM18.241 10.5972H19.1765V9.66162H20.1121V8.7251H21.0476V7.78955H16.3699V8.7251H15.4343V11.5327H18.241V10.5972ZM3.27026 13.4038H4.20581V12.4683H5.14136V11.5327H4.20581V10.5972H3.27026V9.66162H2.33472V10.5972H1.39917V13.4038H2.33472V14.3394H3.27026V13.4038ZM15.4333 9.66162H14.4978V10.5972H13.5623V11.5327H15.4333V9.66162ZM21.9832 13.4038H22.9187V12.4683H23.8542V11.5327H22.9187V10.5972H21.9832V9.66162H21.0476V10.5972H20.1121V11.5327H19.1765V12.4683H20.1121V13.4038H21.0476V14.3394H21.9832V13.4038ZM12.6267 10.5972H11.6912V11.5327H12.6267V10.5972ZM1.39819 11.5327H0.462646V12.4683H1.39819V11.5327ZM11.6912 11.5327H10.7556V12.4683H11.6912V11.5327ZM13.5623 11.5327H12.6267V12.4683H13.5623V11.5327ZM7.948 12.4683H6.0769V13.4038H5.14136V14.3394H4.20581V15.2749H3.27026V16.2104H7.948V12.4683ZM8.8855 19.9536H9.82007V19.0181H10.7556V18.0825H11.6912V13.4038H10.7556V14.3394H9.82007V13.4038H10.7556V12.4683H7.94897V15.2749H8.88452V16.2104H7.94897V20.8892H8.8855V19.9536ZM12.6267 12.4683H11.6912V13.4038H12.6267V12.4683ZM15.4333 12.4683H13.5623V13.4038H14.4978V14.3394H15.4333V12.4683ZM21.0476 15.2749H20.1121V14.3394H19.1765V13.4038H18.241V12.4683H15.4343V15.2749H16.3699V16.2104H21.0476V15.2749ZM15.4333 15.2749H14.4978V14.3394H13.5623V13.4038H12.6267V18.0825H13.5623V19.0181H14.4978V19.9536H15.4333V15.2749ZM8.8855 14.3394H9.82007V15.2749H8.8855V14.3394ZM16.3699 16.2104H15.4343V20.8892H16.3699V16.2104ZM6.0769 19.0181H7.01245V17.146H5.14136V18.0825H4.20581V19.0181H5.14136V19.9536H6.0769V19.0181ZM19.1765 19.0181H20.1121V18.0825H19.1765V17.146H17.3054V19.0181H18.241V19.9536H19.1765V19.0181ZM13.5623 21.8247H14.4978V20.8892H13.5623V19.9536H12.6267V19.0181H11.6912V19.9536H10.7556V20.8892H9.82007V21.8247H10.7556V22.7603H11.6912V23.6958H12.6267V22.7603H13.5623V21.8247Z" />
  </symbol>
  <symbol id="logo-icon">
    <path d="M27.6265 0.141811C27.7566 0.141828 27.8313 0.176738 27.8501 0.247279C27.8687 0.294478 27.859 0.460186 27.8218 0.743373C27.8032 1.00285 27.8032 1.3095 27.8218 1.6633C27.8218 2.74882 28.4734 5.16806 29.7769 8.92013C30.5031 11.044 31.2109 13.6991 31.8999 16.885C32.5889 20.0708 33.0175 22.2895 33.1851 23.5402C33.3713 24.838 33.5943 25.8768 33.855 26.6555H34.7212C35.1494 26.6555 35.3637 26.8319 35.3638 27.1858V27.2209C35.3638 28.0941 35.1592 29.5228 34.7495 31.5051C34.3586 33.487 34.0598 34.8082 33.855 35.469C33.7433 35.8227 33.5948 36 33.4087 36.0002C33.2971 36.0002 33.1941 35.9297 33.1011 35.7883C33.0266 35.6467 32.9801 35.4338 32.9614 35.1506C32.8683 32.7907 32.3186 30.6664 31.313 28.7785H21.5376C21.128 29.4865 20.7546 30.3835 20.4195 31.469C20.1029 32.5545 19.9167 33.7819 19.8609 35.1506C19.8422 35.717 19.7026 36.0002 19.4419 36.0002C19.2559 36 19.1073 35.8227 18.9956 35.469C18.7349 34.7138 18.4178 33.5807 18.0454 32.0705C17.6731 30.5606 17.4782 29.3809 17.4595 28.5315V28.4602C17.4768 28.4382 17.4858 28.4264 17.4868 28.425C17.5799 28.2126 17.8224 27.9766 18.2134 27.717C18.6044 27.4338 19.0699 27.1978 19.6099 27.009C19.5913 26.773 19.5816 26.3954 19.5816 25.8762C19.5816 24.5076 19.6475 23.2925 19.7779 22.2307C19.9268 20.8619 20.1314 19.4804 20.3921 18.0881C20.6715 16.6959 21.2204 15.0558 22.0396 13.1682C22.8589 11.2567 23.9954 9.52254 25.4478 7.96505C25.0195 6.71431 24.7024 5.71046 24.4976 4.95529C24.3115 4.20033 24.228 3.52755 24.2466 2.93771C24.2653 2.3715 24.4884 1.8992 24.9165 1.52169C25.3447 1.1206 25.7919 0.814157 26.2573 0.601772C26.9091 0.294986 27.3658 0.141811 27.6265 0.141811ZM41.1929 0.530483H50.523C50.9513 0.530483 51.1656 0.684633 51.1656 0.99142C51.1655 3.72876 50.8117 5.9351 50.104 7.61056C49.415 9.28595 48.8197 10.4662 48.3169 11.1506C47.8142 11.8348 47.5156 12.2356 47.4224 12.3537L46.9751 12.885C46.5655 13.3568 46.2862 13.7934 46.1372 14.1945C45.9883 14.5957 45.9136 15.0206 45.9136 15.469C45.9136 16.0117 46.0542 16.4481 46.3335 16.7785C46.6315 17.1089 47.0503 17.2862 47.5904 17.3098C47.7577 17.3335 47.6551 17.5108 47.2827 17.841C46.929 18.1713 46.6865 18.3834 46.5562 18.4777C45.6623 19.0913 44.9546 19.3986 44.4331 19.3986C43.8188 19.3986 43.3348 19.2212 42.981 18.8674C42.6272 18.4899 42.4498 17.9944 42.4497 17.3811C42.4497 17.1216 42.4963 16.7908 42.5894 16.3899C42.6825 16.0359 42.795 15.7285 42.9253 15.469C43.0743 15.2094 43.2789 14.9145 43.5396 14.5842C44.3031 13.6875 44.9362 12.6728 45.439 11.5402C45.9418 10.3839 46.3238 9.13246 46.5845 7.78732C46.8638 6.44234 47.0034 5.08558 47.0034 3.71701C47.0034 3.22143 46.9937 2.85534 46.9751 2.61935H42.1148C42.1334 3.37445 42.1237 4.43634 42.0864 5.8049C42.0678 6.13526 42.0591 6.54861 42.0591 7.04415L42.0308 8.84982C42.0308 11.0442 42.0405 12.7902 42.0591 14.0881L42.0864 19.3625V20.5666C42.0865 22.5017 42.133 24.0711 42.2261 25.2746C42.3192 26.478 42.5432 27.3982 42.897 28.0354C43.0646 28.2949 42.7201 28.5426 41.8638 28.7785C41.0071 28.9909 40.1686 29.0979 39.3491 29.0979L38.8745 29.0617C38.5393 29.0381 38.3716 28.0709 38.3716 26.1594C38.3716 25.1446 38.3997 24.2121 38.4556 23.3625L38.4829 22.3723C38.5016 20.5788 38.521 18.2888 38.5396 15.5041C38.5768 12.6962 38.5952 10.2304 38.5952 8.10665C38.5952 6.47846 38.5206 5.15653 38.3716 4.14181C38.2413 3.1036 37.9901 2.25372 37.6177 1.59298C37.4687 1.33339 37.8225 1.08581 38.6792 0.849819C39.5544 0.613898 40.3922 0.506897 41.1929 0.530483ZM80.979 0.318569C81.3142 0.342166 81.4819 1.45119 81.482 3.64572C81.482 4.56606 81.4538 5.69905 81.398 7.04415L81.2583 20.5666C81.2583 22.5017 81.3049 24.0711 81.398 25.2746C81.4911 26.4779 81.7238 27.3982 82.0962 28.0354C82.2452 28.295 81.8914 28.5425 81.0347 28.7785C80.1967 28.9909 79.3678 29.0979 78.5484 29.0979L78.0738 29.0617C77.7386 29.038 77.5708 28.0474 77.5708 26.0891C77.5708 25.5227 77.5989 24.2835 77.6548 22.3723C77.7479 19.2573 77.8042 16.9914 77.8228 15.5754H72.7945C72.7758 17.2745 72.7661 19.1156 72.7661 21.0979C72.7661 22.8676 72.8127 24.3187 72.9058 25.4514C72.9989 26.5841 73.2228 27.4454 73.5767 28.0354C73.7256 28.2949 73.3714 28.5426 72.5152 28.7785C71.6772 28.9909 70.8481 29.0978 70.0288 29.0979L69.5532 29.0617C69.2182 29.0375 69.0503 28.0114 69.0503 25.9826C69.0503 25.4163 69.0784 24.2127 69.1343 22.3723L69.19 20.7434C69.2086 19.8702 69.2551 17.8643 69.3296 14.7258C69.4227 11.5875 69.4693 9.38107 69.4693 8.10665C69.4693 6.43113 69.4227 5.26254 69.3296 4.60177C69.2551 3.91741 69.0225 3.24496 68.6314 2.58419C68.5196 2.37181 68.6971 2.07698 69.1626 1.69943C69.6282 1.32189 70.1867 0.991382 70.8384 0.708217C71.5089 0.40143 72.0585 0.27137 72.4868 0.318569C72.822 0.342359 72.9898 1.39247 72.9898 3.46896C72.9898 3.96453 72.952 5.15628 72.8775 7.04415L72.8218 13.4865H77.8784L77.9624 7.5754C77.9624 6.13592 77.9159 5.09735 77.8228 4.46017C77.7483 3.82303 77.5243 3.19774 77.1519 2.58419C77.0402 2.37183 77.208 2.07695 77.6548 1.69943C78.1203 1.32191 78.6789 0.99137 79.3306 0.708217C80.001 0.401439 80.5507 0.271382 80.979 0.318569ZM158.405 0.601772C159.238 0.531355 159.657 0.507476 159.662 0.530483H169.997C170.276 0.53054 170.416 0.601838 170.416 0.743373C170.416 1.94691 170.229 3.4691 169.857 5.30978C169.503 7.12688 169.196 8.46022 168.935 9.30978C168.823 9.64017 168.674 9.8049 168.488 9.8049C168.376 9.80485 168.273 9.73453 168.18 9.59298C168.106 9.45139 168.059 9.23839 168.041 8.95529C167.929 6.71359 167.398 4.58994 166.449 2.58419H164.662C164.68 2.86739 164.689 3.30394 164.689 3.89376C164.689 4.71972 164.661 5.76984 164.605 7.04415C164.586 7.79932 164.559 9.87637 164.522 13.2746C164.485 16.6492 164.465 19.2572 164.465 21.0979C164.465 22.8675 164.512 24.3187 164.605 25.4514C164.698 26.5841 164.922 27.4454 165.276 28.0354C165.425 28.2949 165.071 28.5426 164.214 28.7785C163.376 28.9909 162.547 29.0979 161.728 29.0979L161.253 29.0617C160.918 29.038 160.751 28.0118 160.751 25.9826C160.751 25.4163 160.779 24.212 160.835 22.3713L160.89 20.7434C160.909 19.8702 160.955 17.8643 161.03 14.7258C161.123 11.5875 161.169 9.38108 161.169 8.10665C161.169 6.80873 161.123 5.73453 161.03 4.88497C160.955 4.01194 160.807 3.2449 160.584 2.58419H158.824C158.042 4.8967 157.603 7.0203 157.51 8.95529C157.492 9.52166 157.352 9.8049 157.091 9.8049C156.905 9.80474 156.757 9.6399 156.645 9.30978C156.366 8.34231 156.04 7.09156 155.668 5.55783C155.314 4.00029 155.136 2.79606 155.136 1.9465C155.136 1.54548 155.472 1.23891 156.142 1.02658C156.812 0.814212 157.567 0.672564 158.405 0.601772ZM176.253 0.530483H185.584C186.012 0.530483 186.226 0.684633 186.226 0.99142C186.226 3.72875 185.872 5.9351 185.165 7.61056C184.476 9.28607 183.879 10.4662 183.376 11.1506C182.874 11.8345 182.576 12.2356 182.483 12.3537L182.036 12.885C181.626 13.3568 181.347 13.7934 181.198 14.1945C181.049 14.5957 180.974 15.0206 180.974 15.469C180.974 16.0115 181.114 16.4482 181.393 16.7785C181.691 17.1089 182.111 17.2862 182.651 17.3098C182.818 17.3335 182.716 17.5108 182.343 17.841C181.99 18.1713 181.747 18.3834 181.617 18.4777C180.723 19.0913 180.015 19.3986 179.494 19.3986C178.879 19.3986 178.395 19.2212 178.042 18.8674C177.688 18.4899 177.51 17.9944 177.51 17.3811C177.51 17.1216 177.557 16.7908 177.65 16.3899C177.743 16.0359 177.855 15.7285 177.986 15.469C178.135 15.2094 178.339 14.9145 178.6 14.5842C179.364 13.6875 179.997 12.6728 180.5 11.5402C181.002 10.3839 181.384 9.13246 181.645 7.78732C181.924 6.44234 182.064 5.08557 182.064 3.71701C182.064 3.22143 182.054 2.85534 182.036 2.61935H177.175C177.194 3.37445 177.184 4.43634 177.147 5.8049C177.128 6.13527 177.12 6.54861 177.12 7.04415L177.091 8.84982C177.091 11.0442 177.101 12.7903 177.12 14.0881L177.147 19.3625V20.5666C177.147 22.5017 177.194 24.0711 177.287 25.2746C177.38 26.478 177.604 27.3982 177.958 28.0354C178.125 28.2949 177.781 28.5426 176.924 28.7785C176.068 28.9909 175.229 29.0979 174.41 29.0979L173.935 29.0617C173.6 29.0381 173.432 28.0709 173.432 26.1594C173.432 25.1446 173.46 24.2121 173.516 23.3625L173.543 22.3713C173.562 20.5779 173.581 18.2886 173.599 15.5041C173.636 12.6962 173.656 10.2304 173.656 8.10665C173.656 6.47847 173.581 5.15653 173.432 4.14181C173.302 3.10346 173.05 2.25375 172.677 1.59298C172.528 1.33344 172.883 1.08577 173.74 0.849819C174.615 0.613901 175.453 0.506892 176.253 0.530483ZM216.038 0.318569C216.373 0.342166 216.541 1.45118 216.541 3.64572C216.541 4.56606 216.512 5.69904 216.457 7.04415L216.317 20.5666C216.317 22.5017 216.363 24.0711 216.457 25.2746C216.55 26.4779 216.782 27.3982 217.155 28.0354C217.304 28.295 216.95 28.5425 216.093 28.7785C215.255 28.9909 214.426 29.0979 213.607 29.0979L213.132 29.0617C212.797 29.0377 212.629 28.0471 212.629 26.0891C212.629 25.5227 212.658 24.2828 212.713 22.3713C212.807 19.2566 212.863 16.9913 212.881 15.5754H207.853C207.834 17.2745 207.825 19.1156 207.825 21.0979C207.825 22.8676 207.871 24.3187 207.964 25.4514C208.057 26.5841 208.281 27.4454 208.635 28.0354C208.784 28.2949 208.43 28.5426 207.574 28.7785C206.736 28.9909 205.907 29.0978 205.087 29.0979L204.612 29.0617C204.277 29.0372 204.11 28.011 204.11 25.9826C204.11 25.4163 204.137 24.212 204.193 22.3713L204.25 20.7434C204.268 19.8702 204.315 17.8643 204.389 14.7258C204.482 11.5875 204.529 9.38107 204.529 8.10665C204.529 6.4312 204.482 5.26256 204.389 4.60177C204.315 3.9174 204.081 3.24497 203.69 2.58419C203.578 2.37183 203.756 2.07691 204.221 1.69943C204.687 1.32192 205.245 0.991369 205.897 0.708217C206.567 0.401442 207.117 0.271385 207.545 0.318569C207.881 0.342167 208.048 1.39226 208.048 3.46896C208.048 3.96453 208.012 5.15629 207.937 7.04415L207.88 13.4865H212.937L213.021 7.5754C213.021 6.13591 212.974 5.09735 212.881 4.46017C212.807 3.82301 212.583 3.19776 212.21 2.58419C212.099 2.37184 212.267 2.07691 212.713 1.69943C213.179 1.32194 213.738 0.991358 214.389 0.708217C215.06 0.401474 215.609 0.271427 216.038 0.318569ZM130.426 0.247279C130.743 0.152883 130.929 0.165417 130.985 0.283412C131.003 0.354287 130.995 0.530982 130.958 0.813686C130.939 1.07327 130.939 1.3806 130.958 1.73458C130.958 2.04148 131.134 2.93847 131.488 4.42501C132.009 6.69041 132.363 8.27144 132.549 9.16818C132.922 10.8436 133.219 12.6135 133.443 14.4777C133.666 16.342 133.927 18.7256 134.225 21.6281C134.318 22.7843 134.384 23.4453 134.421 23.6106C134.682 25.5216 134.942 26.7135 135.203 27.1858C135.482 27.6577 135.622 27.9294 135.622 28.0002C135.64 28.189 135.436 28.3663 135.007 28.5315C134.579 28.6966 134.132 28.8142 133.667 28.885C132.922 29.0029 132.41 29.0617 132.13 29.0617C131.572 29.0617 131.265 28.9324 131.209 28.6731C131.097 28.2955 130.967 27.5989 130.818 26.5842C130.688 25.5694 130.594 24.4481 130.539 23.2209C130.203 17.7697 129.598 13.2502 128.723 9.66329C128.649 9.45097 128.583 9.21477 128.527 8.95529C128.061 9.38004 127.541 10.2183 126.963 11.469C126.405 12.7197 125.911 14.1715 125.483 15.8235C125.073 17.4753 124.841 19.092 124.785 20.6731C124.766 20.909 124.756 21.2746 124.756 21.7697C124.756 23.0441 124.84 24.2599 125.007 25.4162C125.194 26.5489 125.446 27.3987 125.762 27.9651C125.911 28.2245 125.557 28.4723 124.701 28.7082C123.863 28.9442 123.034 29.0617 122.214 29.0617L121.74 29.0266C121.647 28.9794 121.572 28.909 121.516 28.8147C121.442 28.7675 121.386 28.6962 121.349 28.6018C121.331 28.5073 121.284 28.059 121.209 27.257C121.135 25.8647 120.994 24.5189 120.79 23.2209C120.417 20.814 119.905 18.3715 119.253 15.8938C118.62 13.4159 117.969 11.28 117.298 9.48654V9.45138C116.665 10.7493 116.19 12.3187 115.874 14.1594C115.576 15.9765 115.353 17.9707 115.204 20.1418C115.166 20.8023 115.148 21.2978 115.148 21.6281C115.148 22.9025 115.241 24.1298 115.427 25.3098C115.613 26.4897 115.874 27.3751 116.209 27.9651C116.358 28.2245 116.004 28.4724 115.148 28.7082C114.31 28.9442 113.481 29.0617 112.662 29.0617L112.187 29.0266C111.945 29.003 111.768 28.5194 111.656 27.5754C111.563 26.6314 111.516 25.4985 111.516 24.177C111.516 23.2333 111.526 22.5963 111.544 22.2658C111.656 19.8587 112.103 17.2624 112.885 14.4777C113.667 11.6932 114.896 9.36839 116.572 7.50412C116.218 6.466 115.958 5.59283 115.791 4.88497C115.623 4.15359 115.548 3.51653 115.567 2.97384C115.586 2.45474 115.809 1.99412 116.237 1.59298C116.665 1.1918 117.112 0.884475 117.578 0.672084C117.95 0.48336 118.294 0.341673 118.611 0.247279C118.927 0.152883 119.115 0.165417 119.17 0.283412C119.189 0.354427 119.179 0.53125 119.142 0.813686C119.123 1.09687 119.114 1.4042 119.114 1.73458C119.151 2.84379 119.812 5.2629 121.097 8.99142C121.693 10.7849 122.289 12.9912 122.885 15.6106C123.276 13.9587 123.928 12.342 124.84 10.761C125.771 9.15637 126.824 7.89416 127.997 6.97384C127.773 6.05348 127.605 5.28566 127.494 4.67208C127.401 4.03528 127.364 3.4692 127.382 2.97384C127.401 2.45471 127.624 1.99414 128.052 1.59298C128.481 1.1918 128.928 0.884475 129.393 0.672084C129.765 0.483362 130.11 0.341664 130.426 0.247279ZM13.6948 0.425014C13.8808 0.425014 14.0207 0.436633 14.1138 0.46017C14.449 0.483769 14.6167 1.53389 14.6167 3.61056C14.6167 4.22403 14.5983 4.95551 14.5611 5.8049L14.5327 6.97384C14.5141 7.7293 14.487 9.80581 14.4497 13.2033C14.4125 16.5779 14.3931 19.1859 14.3931 21.0266C14.3931 22.7965 14.4396 24.2483 14.5327 25.3811C14.6259 26.5137 14.8498 27.3751 15.2036 27.9651C15.3524 28.2246 14.9986 28.4723 14.1421 28.7082C13.3041 28.9206 12.4752 29.0266 11.6558 29.0266L11.1812 28.9914C10.846 28.9678 10.6783 27.9648 10.6782 25.9826C10.6782 25.4635 10.6967 24.7553 10.7339 23.8586L10.7622 22.301L10.8179 20.6731C10.8365 19.7999 10.883 17.7932 10.9575 14.6545C11.0507 11.5161 11.0972 9.30965 11.0972 8.03537C11.0972 6.76105 11.0507 5.68683 10.9575 4.81369C10.883 3.94072 10.7434 3.17356 10.5386 2.5129H5.70559C5.89182 3.85805 6.22724 5.12104 6.71145 6.30099C7.19565 7.4573 7.82871 8.60188 8.61086 9.73458C8.70398 9.87618 8.8998 10.1594 9.19778 10.5842C9.49571 11.0089 9.73812 11.4339 9.92434 11.8586C10.1105 12.2597 10.2036 12.6375 10.2036 12.9914C10.2036 13.3453 10.1193 13.6287 9.95168 13.841C9.87684 13.9358 9.53238 14.3485 8.91848 15.0793C8.22941 15.8345 7.64293 16.5551 7.15871 17.2395C6.67461 17.9001 6.22754 18.7492 5.81789 19.7873C5.50129 20.6605 5.25894 21.5699 5.09133 22.5139C4.92379 23.4576 4.8394 24.354 4.83938 25.2033C4.83938 26.5013 4.99836 27.4223 5.31496 27.9651C5.4634 28.2245 5.09032 28.4723 4.1968 28.7082C3.303 28.9206 2.43709 29.0266 1.59914 29.0266L1.12453 28.9914C0.9383 28.9914 0.863655 28.6841 0.900902 28.0705C0.900917 27.6932 0.919335 27.3865 0.956566 27.1506C1.14279 25.31 1.42203 23.7761 1.79446 22.549C2.18555 21.2983 2.78174 20.0709 3.58254 18.8674C4.25299 17.8762 4.94223 17.015 5.64993 16.2834C6.35762 15.5518 6.73956 15.1501 6.79543 15.0793C6.92527 14.8903 6.78568 14.4186 6.37649 13.6643C5.96681 12.9092 5.52855 12.201 5.06301 11.5402C4.11327 10.1716 3.39683 8.75525 2.91262 7.2922C2.42842 5.82909 2.14825 4.21248 2.07375 2.44259C2.05513 2.04141 2.47488 1.63967 3.33157 1.23849C4.18803 0.837442 4.88631 0.589705 5.42629 0.495326C5.57528 0.471728 5.69646 0.46017 5.78957 0.46017H12.9693C13.1368 0.436616 13.3787 0.425022 13.6948 0.425014ZM60.4214 1.23849C61.818 0.601445 63.2055 0.31809 64.5835 0.388881C64.658 0.388936 64.6948 0.49588 64.6948 0.708217V0.849819C64.6762 1.74659 64.4716 3.12733 64.0806 4.99142C63.6896 6.83145 63.3919 8.05837 63.187 8.67208C63.0753 9.02605 62.926 9.20331 62.7398 9.20333C62.6281 9.20333 62.5349 9.13284 62.4605 8.99142C62.386 8.82623 62.3394 8.61331 62.3208 8.35372C62.2091 6.08832 61.7525 4.14118 60.9517 2.5129C60.4675 2.70169 59.974 3.0322 59.4712 3.50412C58.9684 3.95248 58.5312 4.55465 58.1587 5.30978C57.7118 6.25373 57.3763 7.30383 57.1529 8.46017C56.948 9.59283 56.8453 10.7491 56.8452 11.9289C56.8452 12.3065 56.8549 12.5782 56.8736 12.7434L57.0406 12.6018C57.6738 12.1298 58.4192 11.7878 59.2759 11.5754C60.1326 11.363 60.9896 11.257 61.8462 11.257C62.5724 11.2571 63.1872 11.3274 63.69 11.469C64.2109 11.5869 64.4719 11.7403 64.4722 11.9289C64.4722 13.3921 63.8663 14.8554 62.6558 16.3186C62.3951 16.6489 62.1992 16.8147 62.0689 16.8147C61.8829 16.8143 61.7624 16.5424 61.7066 16.0002C61.539 14.3011 60.6442 13.4514 59.0239 13.4514C58.3536 13.4514 57.6554 13.5815 56.9292 13.841C57.1155 15.9648 57.6089 18.1596 58.4097 20.425L59.3032 22.4777C60.1227 24.1769 60.6442 25.5699 60.8677 26.6555C61.1098 26.4903 61.4365 26.1473 61.8462 25.6281C62.3675 24.873 62.7118 23.7994 62.8794 22.4074C62.898 22.2659 62.9077 22.0297 62.9077 21.6994C62.9077 20.5667 62.6372 19.9415 62.0972 19.8235C61.9296 19.7763 62.0132 19.5988 62.3482 19.2922C62.7019 18.9619 62.9628 18.7489 63.1304 18.6545C63.2235 18.6073 63.4194 18.4897 63.7173 18.301C64.0339 18.0886 64.3325 17.9354 64.6118 17.841C64.8909 17.7232 65.1327 17.6875 65.3374 17.7346C66.0265 17.8998 66.3716 18.5607 66.3716 19.717C66.3716 20.3541 66.2873 20.9679 66.1197 21.5578C65.7658 23.0916 65.1512 24.3423 64.2759 25.3098C63.382 26.3009 62.3389 27.1507 61.147 27.8586C59.9739 28.5664 58.8568 28.9326 57.7954 28.9563C57.7209 28.9563 57.6647 28.9437 57.6275 28.9201C57.5344 28.9201 57.4878 28.9086 57.4878 28.885C57.3575 28.1299 57.1529 27.3745 56.8736 26.6194C56.5942 25.8642 56.2307 25.0029 55.7837 24.0354C55.0948 22.5489 54.6294 21.381 54.3872 20.5315C53.7354 18.2425 53.4097 16.012 53.4097 13.841C53.4097 12.8027 53.4746 11.8345 53.605 10.9377C53.8099 9.5455 54.1734 8.23604 54.6948 7.009C55.2163 5.75826 55.8774 4.70817 56.6782 3.85861C57.7956 2.72591 59.0433 1.85205 60.4214 1.23849ZM195.483 1.23849C196.88 0.601317 198.268 0.318084 199.646 0.388881C199.72 0.389173 199.757 0.496118 199.757 0.708217V0.849819C199.739 1.74659 199.534 3.12734 199.143 4.99142C198.752 6.8317 198.453 8.05844 198.249 8.67208C198.137 9.02589 197.988 9.20315 197.802 9.20333C197.691 9.20333 197.597 9.13277 197.523 8.99142C197.448 8.82623 197.402 8.61331 197.383 8.35372C197.272 6.08831 196.815 4.14118 196.014 2.5129C195.53 2.70167 195.036 3.03224 194.534 3.50412C194.031 3.9525 193.593 4.55461 193.22 5.30978C192.773 6.25367 192.439 7.30393 192.215 8.46017C192.011 9.59283 191.908 10.7491 191.908 11.9289C191.908 12.3065 191.917 12.5782 191.936 12.7434L192.103 12.6018C192.736 12.1298 193.482 11.7878 194.338 11.5754C195.195 11.3631 196.051 11.2571 196.908 11.257C197.634 11.257 198.249 11.3274 198.751 11.469C199.273 11.5869 199.533 11.7403 199.534 11.9289C199.534 13.392 198.929 14.8555 197.718 16.3186C197.458 16.649 197.262 16.8147 197.131 16.8147C196.945 16.8145 196.824 16.5427 196.768 16.0002C196.6 14.3011 195.707 13.4514 194.086 13.4514C193.416 13.4514 192.718 13.5815 191.992 13.841C192.178 15.9648 192.671 18.1596 193.472 20.425L194.366 22.4777C195.185 24.1766 195.707 25.569 195.93 26.6545C196.172 26.4893 196.498 26.1472 196.908 25.6281C197.429 24.873 197.774 23.7996 197.942 22.4074C197.961 22.2659 197.969 22.0297 197.969 21.6994C197.969 20.5669 197.7 19.9416 197.16 19.8235C196.992 19.7763 197.076 19.5989 197.411 19.2922C197.765 18.9618 198.025 18.7489 198.193 18.6545C198.286 18.6073 198.482 18.4898 198.78 18.301C199.096 18.0887 199.394 17.9354 199.673 17.841C199.953 17.723 200.195 17.6874 200.4 17.7346C201.089 17.8998 201.433 18.5607 201.433 19.717C201.433 20.3541 201.35 20.9679 201.182 21.5578C200.828 23.0917 200.214 24.3423 199.338 25.3098C198.444 26.3009 197.401 27.1506 196.21 27.8586C195.036 28.5665 193.918 28.9327 192.857 28.9563C192.783 28.9562 192.727 28.9437 192.69 28.9201C192.597 28.9201 192.55 28.9086 192.55 28.885C192.42 28.1298 192.215 27.3745 191.936 26.6194C191.657 25.8642 191.293 25.0029 190.846 24.0354C190.157 22.5489 189.692 21.381 189.45 20.5315C188.798 18.2425 188.471 16.012 188.471 13.841C188.471 12.8027 188.537 11.8345 188.668 10.9377C188.872 9.5456 189.235 8.23596 189.756 7.009C190.278 5.75838 190.939 4.70812 191.74 3.85861C192.857 2.72591 194.105 1.85206 195.483 1.23849ZM92.2739 0.0705217C92.5903 -0.0237935 92.7765 -0.0236655 92.8325 0.0705217C92.8698 0.141319 92.8698 0.307027 92.8325 0.566615C92.8139 0.826089 92.8052 1.07389 92.8052 1.30978C92.8052 2.51335 93.4567 5.0029 94.7603 8.77853C95.4866 10.9024 96.1943 13.5575 96.8833 16.7434C97.591 19.9292 98.0282 22.1479 98.1958 23.3986C98.4565 25.31 98.7173 26.5019 98.9781 26.9738C99.2568 27.4448 99.3964 27.7159 99.397 27.7873C99.4156 27.9761 99.2111 28.1534 98.7827 28.3186C98.373 28.4602 97.9164 28.5787 97.4136 28.6731C96.7064 28.791 96.2037 28.8498 95.9058 28.8498C95.3471 28.8498 95.0301 28.7198 94.9556 28.4602C94.8997 28.271 94.7697 27.4334 94.565 25.9475C94.4718 25.3811 94.341 24.6017 94.1734 23.6106C94.0244 22.5959 93.9226 21.9821 93.8667 21.7697C93.1404 23.1621 92.1254 24.4135 90.8218 25.5227C89.5368 26.6082 88.3075 27.4695 87.1343 28.1067C86.2031 28.6022 85.4761 28.8383 84.9546 28.8147C84.7499 28.7908 84.6014 28.4246 84.5083 27.717C84.4152 27.0091 84.3687 26.136 84.3687 25.0979C84.3687 23.6113 84.4337 22.3722 84.564 21.3811C84.7502 19.8943 84.9732 18.4897 85.2339 17.1682C85.4946 15.8466 86.0259 14.2416 86.8267 12.3537C87.6461 10.4424 88.7727 8.70801 90.2066 7.1506C89.8714 6.13588 89.6203 5.28613 89.4527 4.60177C89.3037 3.8938 89.2387 3.28013 89.2573 2.76095C89.276 2.2418 89.4989 1.78126 89.9273 1.38009C90.3555 0.979019 90.8026 0.672538 91.2681 0.46017C91.6219 0.294976 91.9574 0.164918 92.2739 0.0705217ZM145.774 0.0705217C146.09 -0.0237772 146.276 -0.0235827 146.333 0.0705217C146.37 0.141319 146.37 0.307027 146.333 0.566615C146.314 0.826079 146.305 1.07389 146.305 1.30978C146.305 2.51335 146.957 5.00294 148.26 8.77853C148.987 10.9024 149.694 13.5575 150.383 16.7434C151.091 19.9292 151.529 22.1479 151.697 23.3986C151.958 25.31 152.218 26.5019 152.479 26.9738C152.758 27.4447 152.897 27.7159 152.898 27.7873C152.917 27.9761 152.711 28.1534 152.283 28.3186C151.873 28.4601 151.417 28.5787 150.915 28.6731C150.207 28.7911 149.704 28.8498 149.406 28.8498C148.847 28.8498 148.53 28.7198 148.456 28.4602C148.4 28.271 148.27 27.4333 148.065 25.9475C147.972 25.3811 147.841 24.6017 147.673 23.6106C147.524 22.5959 147.423 21.9821 147.367 21.7697C146.64 23.1621 145.625 24.4135 144.322 25.5227C143.037 26.6082 141.808 27.4695 140.634 28.1067C139.703 28.6021 138.977 28.8381 138.456 28.8147C138.251 28.7911 138.101 28.4249 138.008 27.717C137.915 27.0091 137.869 26.136 137.869 25.0979C137.869 23.6114 137.934 22.3722 138.064 21.3811C138.25 19.8943 138.474 18.4897 138.735 17.1682C138.996 15.8467 139.526 14.2416 140.327 12.3537C141.146 10.4424 142.273 8.70801 143.707 7.1506C143.371 6.13586 143.12 5.28614 142.953 4.60177C142.804 3.8938 142.739 3.28013 142.757 2.76095C142.776 2.2418 142.999 1.78126 143.427 1.38009C143.855 0.979018 144.303 0.672555 144.768 0.46017C145.122 0.295004 145.457 0.164914 145.774 0.0705217ZM227.338 0.0705217C227.655 -0.0237391 227.841 -0.0238247 227.897 0.0705217C227.934 0.141319 227.934 0.307027 227.897 0.566615C227.878 0.826096 227.869 1.07388 227.869 1.30978C227.869 2.51334 228.52 5.003 229.824 8.77853C230.55 10.9024 231.259 13.5575 231.948 16.7434C232.655 19.9292 233.093 22.1479 233.26 23.3986C233.521 25.31 233.782 26.5019 234.043 26.9738C234.321 27.4448 234.461 27.7159 234.461 27.7873C234.48 27.9761 234.275 28.1534 233.847 28.3186C233.437 28.4602 232.981 28.5787 232.478 28.6731C231.77 28.791 231.267 28.8498 230.969 28.8498C230.411 28.8498 230.095 28.7197 230.02 28.4602C229.964 28.2713 229.833 27.4338 229.628 25.9475C229.535 25.3811 229.405 24.6017 229.238 23.6106C229.089 22.5959 228.986 21.9821 228.93 21.7697C228.204 23.1621 227.189 24.4135 225.885 25.5227C224.6 26.6081 223.371 27.4695 222.198 28.1067C221.267 28.6021 220.54 28.8382 220.019 28.8147C219.814 28.7911 219.665 28.4249 219.572 27.717C219.479 27.0091 219.432 26.136 219.432 25.0979C219.432 23.6114 219.497 22.3721 219.627 21.3811C219.814 19.8943 220.038 18.4897 220.298 17.1682C220.559 15.8466 221.089 14.2416 221.89 12.3537C222.71 10.4422 223.837 8.70811 225.271 7.1506C224.936 6.13584 224.684 5.28614 224.516 4.60177C224.367 3.89381 224.302 3.28012 224.321 2.76095C224.339 2.24179 224.563 1.78126 224.992 1.38009C225.42 0.979069 225.867 0.672504 226.333 0.46017C226.686 0.295013 227.022 0.164903 227.338 0.0705217ZM26.0347 9.55783C24.5078 11.5873 23.5672 15.0913 23.2134 20.0705C23.1762 20.7785 23.1568 21.3334 23.1568 21.7346C23.1568 23.7405 23.3526 25.3811 23.7437 26.6555H29.7212C29.5909 25.3104 29.4512 24.1418 29.3023 23.1506C28.8926 20.6255 28.3991 18.1477 27.8218 15.717C27.2446 13.2629 26.6491 11.2097 26.0347 9.55783ZM90.7935 8.74337C89.3409 10.584 88.419 14.0766 88.0279 19.2209L87.9722 20.0354C87.8418 21.6401 87.7759 22.7615 87.7759 23.3986C87.7759 24.7908 87.9533 25.4865 88.3072 25.4865C88.4001 25.4865 88.4837 25.4516 88.5581 25.3811C89.2285 24.8855 89.946 24.0829 90.7095 22.9738C91.473 21.8411 92.0877 20.7081 92.5532 19.5754C93.0375 18.4191 93.2333 17.5809 93.1402 17.0617C92.9167 15.8819 92.6743 14.8432 92.4136 13.9465C92.1529 13.0263 91.8174 11.8939 91.4077 10.549L90.9888 9.27462C90.9143 9.03866 90.8493 8.86137 90.7935 8.74337ZM144.293 8.74337C142.841 10.5841 141.919 14.0766 141.528 19.2209L141.472 20.0354C141.342 21.6401 141.277 22.7615 141.277 23.3986C141.277 24.7905 141.453 25.4862 141.807 25.4865C141.9 25.4865 141.985 25.4518 142.059 25.3811C142.729 24.8855 143.446 24.0828 144.21 22.9738C144.973 21.8412 145.588 20.7081 146.053 19.5754C146.537 18.4191 146.733 17.5809 146.64 17.0617C146.417 15.8819 146.174 14.8432 145.914 13.9465C145.653 13.0263 145.317 11.8939 144.908 10.549L144.489 9.27462C144.414 9.03863 144.349 8.86137 144.293 8.74337ZM225.857 8.74337C224.404 10.5841 223.482 14.0767 223.091 19.2209L223.036 20.0354C222.905 21.6401 222.84 22.7615 222.84 23.3986C222.84 24.7908 223.018 25.4865 223.372 25.4865C223.464 25.4864 223.548 25.4516 223.623 25.3811C224.293 24.8855 225.01 24.083 225.774 22.9738C226.538 21.8411 227.152 20.7082 227.618 19.5754C228.102 18.4191 228.297 17.5809 228.204 17.0617C227.98 15.8819 227.739 14.8432 227.478 13.9465C227.217 13.0263 226.882 11.8939 226.472 10.549L226.053 9.27462C225.979 9.03863 225.913 8.86137 225.857 8.74337Z"/>
  </symbol>
  <symbol id="hamburger">
    <path d="M14 8L22 8"  stroke-width="2"/>
    <path d="M3 16L22 16"  stroke-width="2"/>
  </symbol>
  <symbol id="close">
    <path d="M6.75824 17.2426L12.0009 12M12.0009 12L17.2435 6.75736M12.0009 12L6.75824 6.75736M12.0009 12L17.2435 17.2426"  stroke-width="2" stroke-linecap="round" stroke-linejoin="round"/>
  </symbol>
  <symbol id="vk" viewBox="0 0 24 24">
    <path d="M23.0127 17.3562C23.0127 17.2466 22.9263 17.2466 22.9263 17.137C22.5807 16.2603 21.8032 15.1644 20.7664 13.9589C20.248 13.411 19.9888 12.9726 19.8161 12.7534C19.5569 12.3151 19.5569 11.9863 19.6433 11.548C19.7297 11.2192 20.0752 10.6712 20.68 9.68493C21.0256 9.13698 21.1984 8.80822 21.4576 8.47946C22.7535 6.28767 23.3583 4.863 23.1855 4.20547L23.0991 4.09589C23.0127 3.9863 22.9263 3.87672 22.7535 3.87672C22.5807 3.76713 22.3215 3.76713 22.0624 3.87672H18.7793C18.6929 3.87672 18.6929 3.87672 18.5201 3.87672C18.4337 3.87672 18.3473 3.87672 18.3473 3.87672H18.2609H18.1745L18.0881 3.9863C18.0017 4.09588 18.0017 4.09588 18.0017 4.20547C17.6562 5.41095 17.2242 6.39725 16.7922 7.49314C16.533 8.04109 16.2738 8.58904 16.0146 9.0274C15.7555 9.46576 15.5826 9.79452 15.4099 10.0137C15.2371 10.2329 15.0643 10.3425 14.9779 10.5616C14.8915 10.6712 14.7187 10.7808 14.7187 10.6712C14.6323 10.6712 14.5459 10.6712 14.5459 10.5616C14.4595 10.4521 14.3731 10.3425 14.2867 10.2329C14.2003 10.1233 14.2003 9.9041 14.1139 9.68493C14.1139 9.46575 14.1139 9.24657 14.1139 9.13698C14.1139 9.02739 14.1139 8.69863 14.1139 8.47946C14.1139 8.15069 14.1139 7.9315 14.1139 7.82191C14.1139 7.49315 14.1139 7.0548 14.1139 6.61644C14.1139 6.17809 14.1139 5.84931 14.1139 5.63013C14.1139 5.41095 14.1139 5.08219 14.1139 4.86301C14.1139 4.53424 14.1139 4.31506 14.1139 4.20547C14.1139 4.09588 14.0275 3.87671 14.0275 3.76712C13.9411 3.65753 13.8547 3.54794 13.7683 3.43835C13.6819 3.32876 13.5092 3.32876 13.4228 3.21917C12.9908 3.10959 12.4724 3 11.8676 3C10.4853 3 9.53495 3.10959 9.18937 3.32877C9.01657 3.43836 8.84378 3.54794 8.75739 3.76712C8.58459 3.9863 8.58459 4.09589 8.67099 4.09589C9.10297 4.20548 9.44855 4.42465 9.62135 4.75342L9.70775 4.97261C9.79414 5.0822 9.79413 5.30136 9.88052 5.63013C9.96692 5.9589 9.96692 6.28767 9.96692 6.72602C9.96692 7.38356 9.96692 8.0411 9.96692 8.47946C9.96692 9.0274 9.88052 9.35616 9.88052 9.68493C9.88052 10.0137 9.79414 10.2329 9.70775 10.3425C9.62135 10.5616 9.62134 10.6712 9.53494 10.6712C9.53494 10.6712 9.53494 10.7808 9.44854 10.7808C9.36215 10.7808 9.27576 10.8904 9.10297 10.8904C9.01657 10.8904 8.84378 10.7808 8.75739 10.6712C8.58459 10.5616 8.4118 10.3425 8.32541 10.1233C8.15262 9.90411 7.97982 9.57534 7.80703 9.13698C7.63423 8.69862 7.37504 8.26027 7.20224 7.60274L7.02947 7.16439C6.94307 6.94521 6.77028 6.50685 6.59749 5.9589C6.4247 5.41096 6.2519 4.97261 6.07911 4.42466C5.99271 4.20548 5.90633 4.09588 5.81993 3.9863H5.73353C5.73353 3.9863 5.64712 3.87672 5.56073 3.87672C5.47433 3.87672 5.38795 3.76712 5.30155 3.76712H2.19129C1.84571 3.76712 1.67292 3.87671 1.58652 3.9863L1.50012 4.09589C1.50012 4.09589 1.50012 4.20548 1.50012 4.31507C1.50012 4.42466 1.50013 4.53424 1.58652 4.75342C2.0185 6.06849 2.53688 7.38356 3.05525 8.69863C3.57363 9.90411 4.09201 11 4.43759 11.7671C4.86957 12.5343 5.21515 13.3014 5.64713 13.9589C6.07911 14.6164 6.33829 15.0548 6.42469 15.274C6.59748 15.4932 6.68387 15.6027 6.77027 15.7123L7.02947 16.0411C7.20226 16.2603 7.46144 16.589 7.80703 16.9178C8.15261 17.2466 8.58458 17.5753 9.01656 17.9041C9.44854 18.2329 9.96693 18.4521 10.4853 18.6712C11.0901 18.8904 11.6084 19 12.1268 18.8904H13.4228C13.6819 18.8904 13.8548 18.7808 14.0275 18.5617L14.1139 18.4521C14.1139 18.3425 14.2003 18.3425 14.2003 18.2329C14.2003 18.1233 14.2003 18.0137 14.2003 17.7945C14.2003 17.3562 14.2003 17.0274 14.2867 16.6986C14.3731 16.3699 14.3731 16.1507 14.4595 15.9315C14.5459 15.7123 14.6323 15.6027 14.7187 15.4932C14.8051 15.3836 14.8915 15.274 14.8915 15.274H14.9779C15.1507 15.1644 15.4099 15.274 15.5827 15.4932C15.8418 15.7123 16.101 16.0411 16.2738 16.3699C16.4466 16.6986 16.7058 17.0274 17.0514 17.4658C17.397 17.9041 17.6562 18.2329 17.829 18.3425L18.0881 18.5617C18.2609 18.6712 18.4337 18.7808 18.6929 18.8904C18.9521 19 19.1249 19 19.2977 19L22.2352 18.8904C22.4943 18.8904 22.7535 18.7808 22.9263 18.6712C23.0991 18.5617 23.1855 18.4521 23.1855 18.2329C23.1855 18.1233 23.1855 17.9041 23.1855 17.7945C23.0127 17.5754 23.0127 17.4658 23.0127 17.3562Z"/>
  </symbol>
  <symbol id="tg" viewBox="0 0 24 24">
    <path d="M3.14643 11.0627L7.8759 12.8597L9.71958 18.9043C9.79974 19.3127 10.2807 19.3944 10.6013 19.1494L13.2466 16.9439C13.4871 16.6989 13.8879 16.6989 14.2086 16.9439L18.938 20.4563C19.2586 20.7013 19.7396 20.538 19.8198 20.1296L23.3468 2.97605C23.427 2.56764 23.0262 2.15922 22.6254 2.32259L3.14643 10.0008C2.66547 10.1642 2.66547 10.8993 3.14643 11.0627ZM9.4791 11.9612L18.7777 6.1617C18.938 6.08002 19.0983 6.32507 18.938 6.40676L11.3228 13.6766C11.0823 13.9216 10.8418 14.2484 10.8418 14.6568L10.6013 16.6172C10.6013 16.8622 10.2005 16.9439 10.1204 16.6172L9.15844 13.0231C8.91796 12.6147 9.0783 12.1246 9.4791 11.9612Z"/>
  </symbol>

  <symbol id="subtract" viewBox="0 0 22 33">
<path d="M1.48627e-06 15.999L22 0L22 33L1.48627e-06 15.999ZM20 10.3789L17.3789 7.75781L14.7578 10.3789L17.3789 13L20 10.3789ZM16 16L11.7568 11.7578L7.51465 16L11.7568 20.2422L16 16ZM20 21.3789L17.3789 18.7578L14.7578 21.3789L17.3789 24L20 21.3789Z"/>
</symbol>

<symbol id="arrow" viewBox="0 0 16 16">
<path d="M4 6L8 10L12 6"  stroke-width="1.5" stroke-linecap="round" stroke-linejoin="round"/>
</symbol>

</svg>